#!OML:ASF E:\acrobat2\Project_11_07_03\Capture day 1\Session 1\Acrobat.ASF
:FULLY-SPECIFIED
:DEGREES
295
root 12.902 19.0028 7.2849 25.9629 4.09585 4.53405
lowerback 17.8588 2.05441 0.123238
upperback 7.41776 2.69226 -0.118152
thorax -2.04644 1.33967 -0.70843
lowerneck -3.10474 -3.11021 0.907057
upperneck -20.9308 -4.27445 -0.0130293
head -5.84222 -2.16518 0.0178742
rclavicle 1.11319e-014 -4.77083e-015
rhumerus -93.4691 14.8503 5.86274
rradius 11.6241
rwrist 28.2803
rhand -3.32113 -39.4863
rfingers 7.12502
rthumb 22.4057 -68.2069
lclavicle 1.11319e-014 -4.77083e-015
lhumerus -85.7177 -19.9346 30.6542
lradius 8.45734
lwrist 7.75939
lhand -16.4491 -2.4722
lfingers 7.12502
lthumb 9.76689 27.2813
rfemur -72.1004 -9.99232 12.0669
rtibia 82.1411
rfoot -29.3802 -7.20047
rtoes -1.38271
lfemur -78.7318 -3.05433 -13.9239
ltibia 77.7822
lfoot -15.129 -17.0782
ltoes 6.35398
296
root 12.8919 18.8065 7.23643 26.3627 4.39887 4.55077
lowerback 18.1627 2.02489 0.156925
upperback 7.49409 2.66361 -0.00455883
thorax -2.12706 1.32433 -0.612121
lowerneck -3.0104 -3.15747 0.859174
upperneck -21.369 -4.31837 0.140196
head -5.99337 -2.1927 0.0826045
rclavicle 1.43125e-014 3.97569e-015
rhumerus -94.9029 14.7471 4.81312
rradius 11.5972
rwrist 26.8877
rhand -3.31663 -39.2686
rfingers 7.12502
rthumb 22.4101 -67.9886
lclavicle 1.43125e-014 3.97569e-015
lhumerus -87.0881 -19.834 32.6211
lradius 8.10621
lwrist 10.8225
lhand -17.7474 -2.49087
lfingers 7.12502
lthumb 8.51413 27.3175
rfemur -73.1339 -10.1451 12.098
rtibia 83.7149
rfoot -30.1778 -7.22804
rtoes -1.59986
lfemur -79.9983 -2.80928 -14.065
ltibia 79.007
lfoot -16.0757 -17.5051
ltoes 6.71424
297
root 12.8803 18.6073 7.19486 26.7771 4.67712 4.55406
lowerback 18.4242 1.99806 0.167848
upperback 7.56022 2.63501 0.104651
thorax -2.19687 1.30871 -0.505844
lowerneck -2.90009 -3.19337 0.808039
upperneck -21.8776 -4.34595 0.294521
head -6.17018 -2.212 0.149091
rclavicle 3.10104e-014 7.95139e-016
rhumerus -96.2497 14.2351 3.60856
rradius 11.5594
rwrist 25.9647
rhand -3.12961 -38.9459
rfingers 7.12502
rthumb 22.5896 -67.6442
lclavicle 3.10104e-014 7.95139e-016
lhumerus -88.2278 -19.4862 34.5916
lradius 7.79644
lwrist 13.5156
lhand -18.8386 -2.64049
lfingers 7.12502
lthumb 7.46094 27.2079
rfemur -74.0314 -10.2157 12.1226
rtibia 84.976
rfoot -31.106 -7.21851
rtoes -1.8424
lfemur -81.2108 -2.5177 -14.2241
ltibia 80.1122
lfoot -16.9448 -18.0061
ltoes 7.33708
298
root 12.8669 18.4071 7.15975 27.2041 4.91374 4.57012
lowerback 18.6551 1.97895 0.128266
upperback 7.61074 2.60767 0.200629
thorax -2.26876 1.293 -0.384168
lowerneck -2.79902 -3.22446 0.725761
upperneck -22.4175 -4.36354 0.46811
head -6.35517 -2.22542 0.227189
rclavicle 7.15625e-015 -7.95139e-015
rhumerus -97.442 13.3178 2.39798
rradius 11.5126
rwrist 25.5216
rhand -2.96754 -38.5555
rfingers 7.12502
rthumb 22.7451 -67.2347
lclavicle 7.15625e-015 -7.95139e-015
lhumerus -89.0803 -18.9071 36.5585
lradius 7.52679
lwrist 15.9061
lhand -19.7594 -2.88217
lfingers 7.12502
lthumb 6.57211 26.9959
rfemur -74.8184 -10.2095 12.1125
rtibia 85.932
rfoot -32.1509 -7.17959
rtoes -1.84446
lfemur -82.3875 -2.18854 -14.4144
ltibia 81.0938
lfoot -17.605 -18.5835
ltoes 8.31372
299
root 12.8519 18.2069 7.13052 27.6392 5.10644 4.62101
lowerback 18.8801 1.96719 0.031314
upperback 7.63223 2.57913 0.272561
thorax -2.36951 1.27597 -0.255362
lowerneck -2.71302 -3.25386 0.613394
upperneck -22.9553 -4.3744 0.664429
head -6.53664 -2.23493 0.31758
rclavicle 5.725e-014 -8.74653e-015
rhumerus -98.4264 12.0315 1.32791
rradius 11.4542
rwrist 25.511
rhand -2.81889 -38.0457
rfingers 7.12502
rthumb 22.8878 -66.7073
lclavicle 5.725e-014 -8.74653e-015
lhumerus -89.6038 -18.1403 38.5146
lradius 7.30493
lwrist 18.0813
lhand -20.5495 -3.16417
lfingers 7.12502
lthumb 5.80928 26.7362
rfemur -75.5327 -10.1585 12.0645
rtibia 86.6363
rfoot -33.25 -7.15552
rtoes -1.60198
lfemur -83.5487 -1.83063 -14.6543
ltibia 81.9715
lfoot -17.9758 -19.2199
ltoes 9.6476
300
root 12.8353 18.0074 7.10646 28.0774 5.2603 4.72441
lowerback 19.1103 1.95852 -0.121844
upperback 7.62154 2.54332 0.312298
thorax -2.50784 1.25494 -0.12787
lowerneck -2.61713 -3.28273 0.49156
upperneck -23.5087 -4.38092 0.875045
head -6.72533 -2.24265 0.415057
rclavicle 0 7.15625e-015
rhumerus -99.257 10.3709 0.109364
rradius 11.4081
rwrist 25.4246
rhand -2.79046 -37.5657
rfingers 7.12502
rthumb 22.9151 -66.224
lclavicle 0 7.15625e-015
lhumerus -89.7654 -17.2214 40.456
lradius 7.13395
lwrist 20.1062
lhand -21.2397 -3.47199
lfingers 7.12502
lthumb 5.14289 26.4456
rfemur -76.2298 -10.1105 11.9811
rtibia 87.1734
rfoot -34.3128 -7.15747
rtoes -1.11082
lfemur -84.7024 -1.45534 -14.9643
ltibia 82.7772
lfoot -18.0567 -19.8793
ltoes 11.1659
301
root 12.8178 17.8094 7.08744 28.5013 5.38992 4.88112
lowerback 19.3515 1.94426 -0.310566
upperback 7.58508 2.49211 0.321152
thorax -2.67893 1.2265 -0.0102063
lowerneck -2.49 -3.30439 0.378156
upperneck -24.0962 -4.37842 1.07203
head -6.93234 -2.24558 0.508177
rclavicle -3.4191e-014 -1.19271e-014
rhumerus -99.9543 8.31745 -1.56268
rradius 11.3961
rwrist 24.8284
rhand -2.97229 -37.228
rfingers 7.12502
rthumb 22.7406 -65.9078
lclavicle -3.4191e-014 -1.19271e-014
lhumerus -89.5531 -16.1826 42.3902
lradius 7.02016
lwrist 21.9813
lhand -21.8412 -3.83246
lfingers 7.12502
lthumb 4.56208 26.0984
rfemur -76.9256 -10.1225 11.8891
rtibia 87.6451
rfoot -35.2838 -7.13439
rtoes -0.306133
lfemur -85.8373 -1.08031 -15.3464
ltibia 83.5498
lfoot -17.9263 -20.5212
ltoes 12.6563
